<svg version="1.1" id="Warstwa_1" xmlns="http://www.w3.org/2000/svg" xmlns:xlink="http://www.w3.org/1999/xlink" x="0px" y="0px"
	 viewBox="-467 269 24 24" style="enable-background:new -467 269 24 24;" xml:space="preserve">
<style type="text/css">
	.st0{display:none;fill:none;}
	.st1{fill:#FFFFFF;}
	.st2{enable-background:new    ;}
</style>
<path class="st0" d="M-934,538h24v24h-24V538z"/>
<path class="st1" d="M-455,271c-5.5,0-10,4.5-10,10s4.5,10,10,10s10-4.5,10-10S-449.5,271-455,271z"/>
<g class="st2">
	<path d="M-455.6,284.7h2v-5.1c0-0.3,0-0.5,0-0.8l-1.2,1c-0.1,0.1-0.1,0.1-0.2,0.1c-0.1,0-0.1,0-0.2,0c-0.1,0-0.2,0-0.3-0.1
		c-0.1-0.1-0.2-0.1-0.2-0.2l-0.7-0.9l3.2-2.7h1.8v8.6h1.7v1.6h-5.8V284.7z"/>
</g>
<g class="st2">
	<path d="M-457.6,281.4h-1.6v1.7h-0.7v-1.7h-1.6v-0.6h1.6v-1.7h0.7v1.7h1.6V281.4z"/>
</g>
</svg>
