<svg version="1.1" id="Warstwa_1" xmlns="http://www.w3.org/2000/svg" xmlns:xlink="http://www.w3.org/1999/xlink" x="0px" y="0px"
	 viewBox="-467 269 24 24" style="enable-background:new -467 269 24 24;" xml:space="preserve">
<style type="text/css">
	.st0{display:none;fill:none;}
	.st1{fill:#FFFFFF;}
	.st2{enable-background:new    ;}
</style>
<path class="st0" d="M-934,538h24v24h-24V538z"/>
<path class="st1" d="M-455,271c-5.5,0-10,4.5-10,10s4.5,10,10,10s10-4.5,10-10S-449.5,271-455,271z"/>
<g class="st2">
	<path d="M-453.1,275.9c0.5,0,1,0.1,1.4,0.2c0.4,0.1,0.7,0.4,1,0.6c0.3,0.3,0.5,0.6,0.7,0.9c0.2,0.4,0.2,0.8,0.2,1.2
		c0,0.4-0.1,0.7-0.2,1c-0.1,0.3-0.2,0.6-0.4,0.9s-0.4,0.6-0.6,0.8s-0.5,0.5-0.8,0.8l-2,2c0.3-0.1,0.5-0.1,0.8-0.2
		c0.3,0,0.5-0.1,0.7-0.1h1.9c0.2,0,0.4,0.1,0.6,0.2c0.1,0.1,0.2,0.3,0.2,0.5v1.3h-7.2v-0.7c0-0.1,0-0.3,0.1-0.4
		c0.1-0.2,0.2-0.3,0.3-0.4l2.9-3c0.3-0.3,0.5-0.5,0.7-0.7c0.2-0.2,0.3-0.5,0.5-0.7s0.2-0.4,0.3-0.7s0.1-0.5,0.1-0.7
		c0-0.4-0.1-0.7-0.3-0.9c-0.2-0.2-0.5-0.3-0.9-0.3c-0.2,0-0.3,0-0.4,0.1c-0.1,0-0.3,0.1-0.4,0.2c-0.1,0.1-0.2,0.2-0.3,0.3
		s-0.1,0.2-0.2,0.3c-0.1,0.2-0.2,0.4-0.3,0.5c-0.1,0.1-0.3,0.1-0.5,0.1c0,0-0.1,0-0.2,0c-0.1,0-0.1,0-0.2,0l-1.1-0.2
		c0.1-0.5,0.2-1,0.4-1.3c0.2-0.4,0.5-0.7,0.8-0.9c0.3-0.3,0.7-0.4,1.1-0.6C-454,276-453.6,275.9-453.1,275.9z"/>
</g>
<g class="st2">
	<path d="M-457.6,281.4h-1.6v1.7h-0.7v-1.7h-1.6v-0.6h1.6v-1.7h0.7v1.7h1.6V281.4z"/>
</g>
</svg>
