<svg version="1.1" id="Warstwa_1" xmlns="http://www.w3.org/2000/svg" xmlns:xlink="http://www.w3.org/1999/xlink" x="0px" y="0px"
	 viewBox="-467 269 24 24" style="enable-background:new -467 269 24 24;" xml:space="preserve">
<style type="text/css">
	.st0{display:none;fill:none;}
	.st1{fill:#FFFFFF;}
</style>
<path class="st0" d="M-467,269h24v24h-24V269z"/>
<path class="st1" d="M-455,271c-5.5,0-10,4.5-10,10s4.5,10,10,10s10-4.5,10-10S-449.5,271-455,271z"/>
<g>
	<path d="M-452.9,275.9c0.5,0,1,0.1,1.3,0.2c0.4,0.1,0.7,0.3,1,0.6s0.5,0.5,0.6,0.8c0.1,0.3,0.2,0.7,0.2,1c0,0.3,0,0.6-0.1,0.9
		s-0.2,0.5-0.3,0.6c-0.1,0.2-0.3,0.3-0.5,0.5c-0.2,0.1-0.4,0.2-0.6,0.3c1.1,0.4,1.7,1.2,1.7,2.3c0,0.5-0.1,1-0.3,1.4
		c-0.2,0.4-0.5,0.7-0.8,1c-0.3,0.3-0.7,0.5-1.1,0.6c-0.4,0.1-0.9,0.2-1.4,0.2c-0.5,0-0.9-0.1-1.3-0.2c-0.4-0.1-0.7-0.3-1-0.5
		s-0.6-0.5-0.8-0.9c-0.2-0.3-0.4-0.8-0.6-1.2l1-0.4c0.1,0,0.2-0.1,0.2-0.1s0.2,0,0.2,0c0.1,0,0.3,0,0.4,0.1s0.2,0.1,0.3,0.3
		c0.2,0.4,0.4,0.7,0.7,0.8c0.2,0.2,0.5,0.3,0.8,0.3c0.2,0,0.5,0,0.6-0.1c0.2-0.1,0.3-0.2,0.4-0.3c0.1-0.1,0.2-0.3,0.3-0.4
		c0.1-0.2,0.1-0.3,0.1-0.5c0-0.2,0-0.4,0-0.6c0-0.2-0.1-0.3-0.3-0.5s-0.4-0.2-0.6-0.3s-0.7-0.1-1.2-0.1v-1.5c0.4,0,0.8,0,1-0.1
		c0.3-0.1,0.5-0.2,0.6-0.3s0.2-0.3,0.3-0.4c0-0.2,0.1-0.3,0.1-0.5c0-0.4-0.1-0.7-0.3-0.9c-0.2-0.2-0.5-0.3-0.9-0.3
		c-0.2,0-0.3,0-0.4,0.1c-0.1,0-0.3,0.1-0.4,0.2c-0.1,0.1-0.2,0.2-0.3,0.3c-0.1,0.1-0.1,0.2-0.2,0.4c-0.1,0.2-0.2,0.4-0.3,0.5
		s-0.3,0.1-0.5,0.1c0,0-0.1,0-0.2,0c-0.1,0-0.1,0-0.2,0l-1.1-0.2c0.1-0.5,0.2-1,0.4-1.3c0.2-0.4,0.5-0.7,0.8-0.9s0.7-0.4,1.1-0.6
		C-453.8,276-453.4,275.9-452.9,275.9z"/>
</g>
<g>
	<path d="M-457.6,281.4h-1.6v1.7h-0.7v-1.7h-1.6v-0.6h1.6v-1.7h0.7v1.7h1.6V281.4z"/>
</g>
</svg>
